<svg id="Layer_2" data-name="Layer 2" xmlns="http://www.w3.org/2000/svg" width="93.125" height="76.061" viewBox="0 0 93.125 76.061">
  <g id="Layer_1" data-name="Layer 1">
    <path id="Path_1" data-name="Path 1" d="M87.252,246.522l2.761,3.55a10.09,10.09,0,0,0,1.7,1.85,2.617,2.617,0,0,0,1.409.428v.3H87.6v-.3a2.94,2.94,0,0,0,.815-.1.8.8,0,0,0,.326-.222.465.465,0,0,0,.131-.3.871.871,0,0,0-.088-.374,5.922,5.922,0,0,0-.521-.711l-2.189-2.828-2.673,2.94a4.921,4.921,0,0,0-.513.633.725.725,0,0,0-.083.331.505.505,0,0,0,.254.43,2.047,2.047,0,0,0,.978.2v.3H79.468v-.3a3.1,3.1,0,0,0,.831-.171,5.026,5.026,0,0,0,1.12-.569,7.354,7.354,0,0,0,1.214-1.1l2.988-3.272-2.483-3.208a6.934,6.934,0,0,0-1.756-1.705,3.475,3.475,0,0,0-1.66-.43v-.3h5.964v.3a2.1,2.1,0,0,0-1.04.214.516.516,0,0,0-.267.417,1.712,1.712,0,0,0,.454.885l1.973,2.529,2.267-2.481a4.458,4.458,0,0,0,.476-.6.7.7,0,0,0,.091-.334.438.438,0,0,0-.118-.3.762.762,0,0,0-.358-.243,3.866,3.866,0,0,0-.9-.078v-.3h4.56v.3a3.019,3.019,0,0,0-.882.147,3.743,3.743,0,0,0-.938.505,9.792,9.792,0,0,0-1.206,1.171ZM74.579,241.9v-.3h4.544v.3h-.484a1.369,1.369,0,0,0-1.165.535,2.165,2.165,0,0,0-.2,1.171v4.475a6.867,6.867,0,0,1-.382,2.577,3.387,3.387,0,0,1-1.508,1.572,6.057,6.057,0,0,1-3.053.655,6.491,6.491,0,0,1-3.192-.628,3.5,3.5,0,0,1-1.545-1.684,8.073,8.073,0,0,1-.3-2.719v-4.3a1.945,1.945,0,0,0-.326-1.337,1.476,1.476,0,0,0-1.069-.318h-.481v-.3H70.97v.3h-.492a1.362,1.362,0,0,0-1.136.43,2.113,2.113,0,0,0-.238,1.219v4.812a9.214,9.214,0,0,0,.136,1.473,2.871,2.871,0,0,0,.5,1.294,2.673,2.673,0,0,0,1.04.767,4.093,4.093,0,0,0,1.663.3,5.237,5.237,0,0,0,2.259-.47,2.748,2.748,0,0,0,1.361-1.208,6.136,6.136,0,0,0,.366-2.5v-4.464a1.978,1.978,0,0,0-.267-1.291,1.516,1.516,0,0,0-1.1-.358Zm-10,7.7.31.059-1.107,2.989H53.828v-.3h.484a1.408,1.408,0,0,0,1.165-.452,2.3,2.3,0,0,0,.2-1.2v-7.145c0-.69-.086-1.12-.267-1.291a1.521,1.521,0,0,0-1.1-.358h-.484v-.3h5.827v.3a4.183,4.183,0,0,0-1.441.16,1.128,1.128,0,0,0-.564.425,3.057,3.057,0,0,0-.152,1.23v6.963a2,2,0,0,0,.152.93.66.66,0,0,0,.353.267,7.485,7.485,0,0,0,1.484.08h.938a7.854,7.854,0,0,0,2.082-.187A2.783,2.783,0,0,0,63.6,251.1a5.3,5.3,0,0,0,.992-1.51ZM46.319,241.93a3.625,3.625,0,0,0-2.748,1.1,5.642,5.642,0,0,0-1.3,4.01,5.936,5.936,0,0,0,1.337,4.159,3.547,3.547,0,0,0,2.727,1.109,4.01,4.01,0,0,0,2.989-1.214,5.322,5.322,0,0,0,1.176-3.828,6.015,6.015,0,0,0-1.3-4.229,3.753,3.753,0,0,0-2.879-1.107Zm.182-.585a6.308,6.308,0,0,1,4.336,1.633,5.234,5.234,0,0,1,1.834,4.076,5.378,5.378,0,0,1-1.847,4.175,6.9,6.9,0,0,1-8.933.037,5.37,5.37,0,0,1-1.794-4.191,5.242,5.242,0,0,1,2.085-4.29,6.741,6.741,0,0,1,4.33-1.441Zm-7.364.251.158,2.6H38.92a2.8,2.8,0,0,0-.283-.978,1.78,1.78,0,0,0-.783-.692,3.125,3.125,0,0,0-1.286-.225H34.75v8.428A2.016,2.016,0,0,0,35,252a1.566,1.566,0,0,0,1.109.339h.441v.3H31.083v-.3h.46a1.433,1.433,0,0,0,1.171-.425,2.166,2.166,0,0,0,.211-1.19V242.3H31.379a5.079,5.079,0,0,0-1.283.112,1.748,1.748,0,0,0-.845.593,2.2,2.2,0,0,0-.417,1.19h-.358l.136-2.6Zm-15.988.3v-.3h4.526v.3h-.484a1.369,1.369,0,0,0-1.165.535,2.165,2.165,0,0,0-.2,1.171v4.475a6.867,6.867,0,0,1-.382,2.577,3.387,3.387,0,0,1-1.508,1.572,6.057,6.057,0,0,1-3.053.655,6.491,6.491,0,0,1-3.192-.628,3.5,3.5,0,0,1-1.545-1.684,8.073,8.073,0,0,1-.3-2.719v-4.3a1.945,1.945,0,0,0-.326-1.337,1.475,1.475,0,0,0-1.056-.318H13.98v-.3h5.563v.3h-.492a1.362,1.362,0,0,0-1.136.43,2.113,2.113,0,0,0-.238,1.219v4.812a9.214,9.214,0,0,0,.136,1.473,2.871,2.871,0,0,0,.5,1.294,2.673,2.673,0,0,0,1.04.767,4.092,4.092,0,0,0,1.663.3,5.237,5.237,0,0,0,2.259-.47,2.748,2.748,0,0,0,1.361-1.208,6.136,6.136,0,0,0,.366-2.5v-4.464a1.983,1.983,0,0,0-.267-1.291,1.526,1.526,0,0,0-1.1-.358Zm-14.7,6.463L6.279,243.9,4.05,248.359Zm.291.6H3.756l-.861,1.729a2.491,2.491,0,0,0-.323.962.535.535,0,0,0,.281.444,2.779,2.779,0,0,0,1.208.246v.3H0v-.3a2.384,2.384,0,0,0,1.043-.315,5.087,5.087,0,0,0,1.069-1.588l4.528-9.088h.321l4.48,9.185a4.129,4.129,0,0,0,.981,1.438,2.213,2.213,0,0,0,1.23.369v.3H8.573v-.3a2.152,2.152,0,0,0,1.04-.219.535.535,0,0,0,.278-.444,3.039,3.039,0,0,0-.377-1.133Z" transform="translate(0 -176.829)" fill="#fff"/>
    <path id="Path_2" data-name="Path 2" d="M120.89,24.266A21.008,21.008,0,0,0,109.4,8.2V1.647a27.033,27.033,0,0,1,17.562,22.62Zm-17.706,23.5a20.572,20.572,0,0,0,17.6-17.295h6.087a27.014,27.014,0,0,1-29.9,23.368V30.471H79.363A21.018,21.018,0,0,0,90.756,45.82v6.549A27.014,27.014,0,0,1,103.172.177Zm-23.927-23.5H96.963V6.25A21.005,21.005,0,0,0,79.256,24.266Z" transform="translate(-53.528 0.003)" fill="#fff" fill-rule="evenodd"/>
  </g>
</svg>
